# xmcd
#
# Track frame offsets:
# 150
# 20640
# 38760
# 59235
# 76087
# 96605
# 112345
# 129085
# 148437
# 168875
# 188707
#
# Disc length: 2830 seconds
#
# Revision: 1
# Processed by: cddbd v1.4PL0 Copyright (c) Steve Scherf et al.
# Submitted via: inCDius 2.0b9
#
DISCID=9f0b0c0b
DTITLE=Mark Selby - Dirt
DYEAR=1900
DGENRE=
TTITLE0=Reason Enough
TTITLE1=Back Door To My Heart
TTITLE2=Willin' To Burn
TTITLE3=If The World Was Mine
TTITLE4=Moon Over My Shoulder
TTITLE5=One Man
TTITLE6=You
TTITLE7=Desire
TTITLE8=Easier To Lie
TTITLE9=Unforgiven
TTITLE10=Dirt
EXTD=
EXTT0=
EXTT1=
EXTT2=
EXTT3=
EXTT4=
EXTT5=
EXTT6=
EXTT7=
EXTT8=
EXTT9=
EXTT10=
PLAYORDER=
